<svg xmlns="http://www.w3.org/2000/svg" enable-background="new 0 0 512 512" viewBox="0 0 512 512" id="retweet">
  <g>
    <g>
      <path fill="#212121" d="M207.573 179.36c0 3.573 1.906 6.874 5 8.66 3.094 1.787 6.906 1.787 10 0L349.76 114.58c3.094-1.786 5-5.088 5-8.66s-1.906-6.874-5-8.66L222.573 23.821c-3.094-1.787-6.906-1.787-10 0-3.094 1.786-5 5.087-5 8.66v21.715H10c-5.522 0-10 4.478-10 10v347.301c0 5.522 4.478 10 10 10h83.449c5.522 0 10-4.478 10-10V157.645h104.124V179.36zM93.449 137.645c-5.522 0-10 4.478-10 10v253.852H20V74.196h197.573c5.522 0 10-4.478 10-10V49.802l97.188 56.118-97.188 56.118v-14.394c0-5.522-4.478-10-10-10H93.449zM502 90.504h-83.449c-5.522 0-10 4.478-10 10v253.852H304.427v-21.715c0-3.573-1.906-6.874-5-8.66-3.094-1.787-6.906-1.787-10 0L162.24 397.42c-3.094 1.786-5 5.088-5 8.66s1.906 6.874 5 8.66l127.187 73.439c1.547.894 3.273 1.34 5 1.34s3.453-.446 5-1.34c3.094-1.786 5-5.087 5-8.66v-21.715H502c5.522 0 10-4.478 10-10V100.504C512 94.982 507.522 90.504 502 90.504zM492 437.805H294.427c-5.522 0-10 4.478-10 10v14.394l-97.188-56.118 97.188-56.118v14.394c0 5.522 4.478 10 10 10h124.124c5.522 0 10-4.478 10-10V110.504H492V437.805z"></path>
    </g>
  </g>
</svg>
